<svg width="80" height="94" viewBox="0 0 80 94" fill="none" xmlns="http://www.w3.org/2000/svg">
<g id="cocktail_ 2">
<g id="cocktail_">
<path id="Path" d="M60.2488 92.8522L45.3761 83.0859V54.8066C45.3761 53.8155 44.5783 53.012 43.5942 53.012C42.6102 53.012 41.8124 53.8155 41.8124 54.8066V83.1103L26.9397 92.8766L60.2488 92.8522Z" fill="#3EE9E5"/>
<path id="Shape" fill-rule="evenodd" clip-rule="evenodd" d="M26.9156 93.4625H60.2429C60.5113 93.4618 60.7472 93.2834 60.8228 93.024C60.8984 92.7646 60.7956 92.4861 60.5701 92.3394L45.958 82.7807V54.8065C45.958 53.4783 44.8889 52.4016 43.5701 52.4016C42.2513 52.4016 41.1822 53.4783 41.1822 54.8065V82.7807L26.5883 92.3394C26.3628 92.4861 26.26 92.7646 26.3356 93.024C26.4112 93.2834 26.6472 93.4618 26.9156 93.4625ZM58.2065 92.2417H28.9883L42.1459 83.623C42.317 83.5095 42.4196 83.3167 42.4186 83.1103V54.8065C42.4186 54.1526 42.945 53.6224 43.5944 53.6224C44.2437 53.6224 44.7701 54.1526 44.7701 54.8065V83.092C44.7691 83.2984 44.8717 83.4912 45.0429 83.6047L58.2065 92.2417Z" fill="#093F68"/>
<ellipse id="Oval" cx="11.6307" cy="19.0255" rx="11.0242" ry="11.103" fill="#080C20"/>
<path id="Shape_2" fill-rule="evenodd" clip-rule="evenodd" d="M0.885644 23.5081C2.68579 27.8851 6.92662 30.7389 11.6306 30.7389C18.0511 30.7322 23.2543 25.4919 23.2609 19.0255C23.2609 14.2879 20.4273 10.0168 16.0814 8.2038C11.7354 6.39079 6.73302 7.39294 3.40678 10.7429C0.0805335 14.0929 -0.914506 19.1311 0.885644 23.5081ZM2.00492 15.0177C3.6171 11.0962 7.41633 8.53905 11.6306 8.53905V8.52685C17.384 8.53358 22.0455 13.2311 22.0488 19.0255C22.0513 23.27 19.5145 27.0978 15.6217 28.7238C11.7289 30.3498 7.24686 29.4536 4.26602 26.4532C1.28519 23.4528 0.392739 18.9393 2.00492 15.0177Z" fill="#093F68"/>
<path id="Path_2" d="M43.5942 58.1026L7.86694 16.2665H79.3215L43.5942 58.1026Z" fill="#080C20"/>
<path id="Shape_3" fill-rule="evenodd" clip-rule="evenodd" d="M43.1398 58.4994C43.255 58.635 43.4233 58.7131 43.6004 58.7131C43.7755 58.7113 43.9412 58.6334 44.055 58.4994L79.7823 16.6633C79.9368 16.4823 79.9723 16.2271 79.8732 16.0102C79.7738 15.7939 79.5584 15.6556 79.3217 15.6562H7.87317C7.63646 15.6556 7.42107 15.7939 7.32166 16.0102C7.22252 16.2271 7.25804 16.4823 7.41257 16.6633L43.1398 58.4994ZM43.5944 57.1627L9.18832 16.877H78.0004L43.5944 57.1627Z" fill="#093F68"/>
<path id="Path_3" d="M16.467 26.3319L43.5943 58.1027L70.7216 26.3319H16.467Z" fill="#3EE9E5"/>
<path id="Shape_4" fill-rule="evenodd" clip-rule="evenodd" d="M43.1397 58.4994C43.2548 58.635 43.4231 58.7131 43.6003 58.7131C43.7775 58.7131 43.9458 58.635 44.0609 58.4994L71.1882 26.7286C71.3427 26.5476 71.3782 26.2924 71.2791 26.0755C71.1797 25.8592 70.9643 25.7209 70.7276 25.7215H16.473C16.2363 25.7209 16.0209 25.8592 15.9215 26.0755C15.8224 26.2924 15.8579 26.5476 16.0124 26.7286L43.1397 58.4994ZM43.6003 57.1627L17.7942 26.9728L69.4124 26.9423L43.6003 57.1627Z" fill="#093F68"/>
<path id="Path_4" d="M44.6124 53.5064C44.4984 53.505 44.387 53.4711 44.2912 53.4088C44.1554 53.3222 44.0593 53.1848 44.024 53.0268C43.9888 52.8688 44.0173 52.7032 44.1033 52.5664L76.77 0.286568C76.9491 2.58982e-05 77.3249 -0.0860576 77.6094 0.0942957C77.8939 0.274649 77.9794 0.653143 77.8003 0.939685L45.1276 53.2196C45.0166 53.3984 44.8218 53.5069 44.6124 53.5064Z" fill="#093F68"/>
<ellipse id="Oval_2" cx="73.0489" cy="7.92862" rx="6.27273" ry="6.31753" fill="#080C20"/>
<path id="Shape_5" fill-rule="evenodd" clip-rule="evenodd" d="M66.158 7.92865C66.1613 11.7582 69.2465 14.8599 73.0489 14.8566C76.8499 14.8498 79.9277 11.7446 79.9277 7.91644C79.9243 4.08689 76.8391 0.985157 73.0367 0.988528C69.2344 0.9919 66.1546 4.0991 66.158 7.92865ZM67.8025 5.74088C68.6817 3.60469 70.7528 2.21294 73.0489 2.21541C76.1734 2.22211 78.7055 4.76965 78.7155 7.91644C78.7204 10.2289 77.3408 12.3163 75.2207 13.2041C73.1006 14.0919 70.6582 13.605 69.0337 11.9707C67.4093 10.3364 66.9233 7.87708 67.8025 5.74088Z" fill="#093F68"/>
<path id="Path_5" d="M69.5881 7.5868C69.5279 7.59601 69.4666 7.59601 69.4063 7.5868C69.0868 7.48722 68.9078 7.14574 69.0063 6.82382C69.868 4.21682 72.6265 2.76699 75.2427 3.54602C75.5774 3.62356 75.7863 3.95969 75.7094 4.2968C75.6324 4.63391 75.2986 4.84434 74.9639 4.7668C71.2609 3.88174 70.2063 7.08018 70.1639 7.20836C70.0685 7.44255 69.8394 7.5931 69.5881 7.5868Z" fill="#093F68"/>
<path id="Shape_6" fill-rule="evenodd" clip-rule="evenodd" d="M40.3821 35.1032C40.4642 35.1394 40.553 35.1581 40.6427 35.1581C40.7066 35.159 40.7702 35.1486 40.8306 35.1276C40.9821 35.074 41.1064 34.9621 41.176 34.8163L46.1821 24.2749C46.3251 23.9714 46.1978 23.6086 45.8972 23.463L35.4366 18.409C35.1353 18.265 34.7751 18.3932 34.6306 18.6959L29.6124 29.2312C29.5501 29.3816 29.5501 29.5508 29.6124 29.7012C29.6633 29.8538 29.7754 29.9778 29.9215 30.043L40.3821 35.1032ZM40.3578 33.7359L30.9881 29.2068L35.4851 19.7702L44.8548 24.2993L40.3578 33.7359Z" fill="#093F68"/>
<path id="Shape_7" fill-rule="evenodd" clip-rule="evenodd" d="M38.3639 48.0984C38.4558 48.3308 38.6792 48.4832 38.9275 48.4829C39.0124 48.4864 39.0971 48.4718 39.176 48.4402L47.2245 45.2357C47.5351 45.1136 47.6895 44.7618 47.57 44.4483L44.3882 36.3362C44.3288 36.1855 44.2124 36.0648 44.0646 36.0007C43.9168 35.9366 43.7497 35.9343 43.6003 35.9944L35.5275 39.1928C35.378 39.2526 35.2581 39.3698 35.1945 39.5187C35.1308 39.6675 35.1285 39.8358 35.1882 39.9863L38.3639 48.0984ZM39.2669 47.079L36.5336 40.1084L43.4609 37.3555L46.1942 44.3262L39.2669 47.079Z" fill="#093F68"/>
</g>
</g>
</svg>
