<svg width="88" height="106" viewBox="0 0 88 106" fill="none" xmlns="http://www.w3.org/2000/svg">
<g id="easter_egg_ 3">
<g id="easter_egg_ 2">
<g id="easter_egg_">
<path id="Path" d="M70.001 64.8587C70.0102 67.3256 69.8068 69.7887 69.3931 72.2218C68.7095 76.4816 67.1768 80.5663 64.8831 84.2408C58.6768 93.9974 47.5147 98.6648 35.2989 98.6648C23.0831 98.6648 11.9094 93.9974 5.70312 84.2408C4.76776 82.7714 3.96757 81.2228 3.31207 79.6133C2.69003 78.1324 2.17919 76.6086 1.78365 75.0541C1.56365 74.148 1.35523 73.2134 1.2047 72.2503C0.800674 69.8164 0.606998 67.3533 0.625754 64.8872C0.642326 60.8998 1.10637 56.9263 2.00944 53.0392C2.3626 51.4207 2.79681 49.7908 3.2947 48.1666C4.15312 45.3098 5.17564 42.5033 6.35733 39.7607C13.16 23.9177 24.8431 10.2972 35.2931 10.2972C43.7573 10.2972 53.0784 19.273 59.9158 31.1439C61.0273 33.0758 62.081 35.0762 63.0363 37.1335C63.4473 37.994 63.841 38.8717 64.2231 39.7493C65.3997 42.49 66.4221 45.2924 67.2858 48.1438C68.9963 53.5594 69.9106 59.1881 70.001 64.8587Z" fill="#080C20"/>
<path id="Shape" fill-rule="evenodd" clip-rule="evenodd" d="M5.18762 84.5428C11.1276 93.8777 22.0871 99.2347 35.2639 99.2347C48.4697 99.2347 59.4292 93.8777 65.3692 84.5428C67.7025 80.8055 69.2627 76.6512 69.9603 72.3186C70.3807 69.8537 70.588 67.3582 70.5797 64.8588C70.4764 59.1341 69.5326 53.4543 67.7776 47.9956C66.9116 45.1224 65.8833 42.2989 64.6976 39.5384V39.5042C64.3271 38.6038 63.9276 37.7034 63.5397 36.8941C62.6018 34.8881 61.5597 32.8593 60.4018 30.8647C52.7713 17.6261 43.3692 9.72736 35.2639 9.72736C23.8297 9.72736 11.9845 25.1999 5.82446 39.5498C4.63525 42.3115 3.60503 45.137 2.73867 48.0127C2.2292 49.6996 1.7892 51.3523 1.44183 52.9252C0.519382 56.8392 0.035964 60.841 0.000250548 64.8588C-0.00823836 67.3563 0.198999 69.85 0.619724 72.3129C0.747093 73.2248 0.943935 74.1537 1.19867 75.1624C1.59596 76.7518 2.11265 78.31 2.74446 79.8241C3.4154 81.4651 4.233 83.0442 5.18762 84.5428ZM6.89551 40.0057C14.225 22.8691 25.9024 10.9013 35.2639 10.9013V10.8671C42.8597 10.8671 52.1055 18.7659 59.4408 31.4403C60.5755 33.4064 61.6176 35.4124 62.5439 37.3956C62.9202 38.1992 63.3139 39.0711 63.7018 39.9886V40.0228C64.8685 42.7351 65.8813 45.509 66.7355 48.3319C68.4293 53.686 69.334 59.2517 69.4218 64.8588C69.4375 67.2925 69.2438 69.7233 68.8429 72.1249C68.1563 76.3146 66.6354 80.3295 64.3676 83.9388C58.6418 92.9374 48.0008 98.0949 35.2639 98.0949C22.5271 98.0949 11.915 92.9317 6.16025 83.9672C5.24478 82.517 4.45834 80.9916 3.80972 79.4081C3.20222 77.9429 2.70303 76.4363 2.31604 74.9003C2.07867 73.9257 1.88762 73.0196 1.73709 72.1363C1.33615 69.7347 1.14248 67.3039 1.15815 64.8702C1.1931 60.9348 1.66682 57.0152 2.57078 53.1817C2.91815 51.6315 3.34657 50.0074 3.84446 48.349C4.7019 45.5138 5.72052 42.7284 6.89551 40.0057Z" fill="#093F68"/>
<path id="Path_2" d="M59.9678 31.2693C60.6336 32.808 58.9836 38.3587 58.9141 40.2109C58.6913 43.777 58.2738 47.3288 57.6636 50.8508C57.5861 51.8438 57.3107 52.812 56.8531 53.7003C56.3687 54.5871 55.4083 55.1197 54.3867 55.068C53.1189 54.9027 52.3546 53.5806 52.1115 52.3496C51.8683 51.1186 51.9668 49.8079 51.492 48.6453C51.0173 47.4827 49.622 46.5196 48.4757 47.0838C48.0045 47.3642 47.6295 47.777 47.3989 48.2692C46.4783 49.939 46.1715 51.8595 45.8762 53.7344C44.8746 60.1514 42.7557 67.3207 43.1725 73.8004C43.3057 75.9033 43.6994 78.217 41.401 79.5335C39.1025 80.8499 36.6189 79.0434 35.6694 76.969C34.7894 75.0541 34.7662 72.8828 34.3089 70.8312C33.6778 67.9818 30.6731 60.3965 27.2052 65.2919C26.3136 66.5513 26.0473 68.1413 25.8331 69.6515C24.5575 78.6081 23.8402 87.633 23.6852 96.6758C23.6504 98.773 23.6041 101.007 22.4115 102.745C21.2189 104.483 18.4052 105.293 16.9404 103.771C16.0836 102.882 15.962 101.543 15.8925 100.317C15.3136 90.162 15.5568 79.7329 14.3757 69.6344C13.6868 63.7817 8.00728 54.4753 2.03833 53.0506C2.39149 51.4321 2.8257 49.8022 3.32359 48.178C4.18201 45.3212 5.20454 42.5147 6.38622 39.7721C13.1599 23.9177 24.8431 10.2972 35.2931 10.2972C43.7573 10.2972 53.0783 19.273 59.9157 31.1439C61.0273 33.0758 62.081 35.0762 63.0362 37.1335C61.8494 35.3383 61.062 33.167 59.9678 31.2693Z" fill="#3EE9E5"/>
<path id="Shape_2" fill-rule="evenodd" clip-rule="evenodd" d="M16.4947 104.164C17.1286 104.81 18.0083 105.166 18.9205 105.144L19.2852 105.133C20.7345 104.993 22.0495 104.238 22.8863 103.064C24.1889 101.172 24.2294 98.7902 24.2642 96.6872C24.4213 87.6616 25.1386 78.6538 26.4121 69.7142C26.6436 68.1242 26.8984 66.7109 27.6857 65.5996C28.4094 64.5795 29.11 64.135 29.7757 64.2604C31.4373 64.5909 33.1742 68.4149 33.7531 70.9338C33.9036 71.6063 34.0079 72.3072 34.1063 72.9854C34.2499 74.4037 34.5908 75.7959 35.1194 77.1228C35.7726 78.5895 37.01 79.7271 38.541 80.2686C39.583 80.6171 40.7278 80.4984 41.6731 79.9438C44.0807 78.5651 43.908 76.1556 43.769 74.2183L43.7689 74.2164L43.7284 73.6864C43.4402 69.147 44.4146 64.2518 45.3602 59.5012L45.3726 59.4391C45.7663 57.4672 46.1252 55.5524 46.4263 53.7402C46.4384 53.6669 46.4506 53.5935 46.4628 53.52C46.7512 51.7771 47.0464 49.9941 47.8852 48.4629C48.0611 48.0731 48.3488 47.7423 48.7131 47.5112C49.0073 47.3793 49.3452 47.3793 49.6394 47.5112C50.2244 47.7548 50.6882 48.2155 50.9305 48.7935C51.1776 49.5009 51.318 50.2401 51.3473 50.9876C51.3879 51.4435 51.4342 51.9165 51.521 52.3895C51.7815 53.7174 52.6557 55.3529 54.2826 55.5638C55.5337 55.6449 56.7192 55.0048 57.3221 53.9225C57.8234 52.9809 58.1285 51.9501 58.2194 50.8907C58.3005 50.3208 58.3815 49.7509 58.4684 49.181C58.9761 46.2046 59.3105 43.2021 59.47 40.1881C59.5755 39.1899 59.7399 38.1985 59.9621 37.219C60.2284 35.8854 60.4542 34.7114 60.5757 33.7198C60.6278 33.8224 60.6742 33.9193 60.7205 34.0219C61.2476 35.1985 61.851 36.3407 62.5268 37.4412C62.6908 37.6964 63.0285 37.7814 63.2968 37.635C63.5633 37.4895 63.6696 37.1656 63.54 36.8941C62.6021 34.8881 61.56 32.8593 60.4021 30.8647C52.7715 17.6261 43.3694 9.72736 35.2642 9.72736C23.83 9.72736 11.9847 25.1999 5.82469 39.5498C4.63548 42.3115 3.60526 45.137 2.7389 48.0127C2.22943 49.6996 1.78943 51.3523 1.44206 52.9309C1.37673 53.2322 1.56649 53.5301 1.87048 53.6034C7.7468 55.0053 13.1426 64.3344 13.7736 69.7028C14.5205 76.1084 14.7057 82.7762 14.8794 89.216C14.9778 92.8747 15.0821 96.6588 15.2905 100.346C15.3368 101.434 15.441 103.076 16.4947 104.164ZM14.9373 69.5718C14.2889 63.9241 8.91048 54.5779 2.70995 52.646H2.69259C3.00558 51.2791 3.40807 49.8572 3.82308 48.3911L3.84469 48.3148C4.70213 45.4796 5.72075 42.6942 6.89574 39.9715C14.2252 22.8349 25.9026 10.8671 35.2642 10.8671C42.86 10.8671 52.1057 18.7659 59.4294 31.5314C59.7942 32.3578 59.25 35.0933 58.8505 37.0879C58.6104 38.1243 58.4402 39.1752 58.341 40.2337C58.1758 43.2054 57.8434 46.1658 57.3452 49.1012C57.3047 49.3863 57.2627 49.6713 57.2207 49.9564C57.1787 50.2412 57.1368 50.5261 57.0963 50.8109C57.0195 51.7193 56.768 52.6051 56.3552 53.421C55.9828 54.1073 55.2524 54.5317 54.4621 54.5209C53.5068 54.3727 52.8815 53.2728 52.6847 52.2413C52.6083 51.8112 52.5542 51.3775 52.5226 50.942C52.4863 50.0825 52.3185 49.2333 52.0247 48.4231C51.6622 47.5493 50.9566 46.8567 50.0678 46.5025C49.4676 46.2704 48.7961 46.2952 48.2152 46.5709C47.6404 46.9027 47.1805 47.3972 46.8952 47.9899C45.9254 49.7468 45.604 51.778 45.3165 53.5952L45.3089 53.6433C45.0194 55.4726 44.6489 57.3362 44.2552 59.3023L44.2481 59.3379C43.2893 64.1652 42.2991 69.1502 42.5994 73.8289L42.6342 74.3703C42.7731 76.2395 42.9005 78.0062 41.1115 79.0377C40.4489 79.4257 39.6464 79.5069 38.9173 79.2599C37.7023 78.8119 36.723 77.8993 36.2021 76.7296C35.6992 75.4809 35.3776 74.1686 35.2468 72.8316C35.1426 72.1363 35.0326 71.4125 34.8763 70.7059C34.4768 68.9164 32.7284 63.6905 29.9957 63.1548C28.8378 62.9325 27.7379 63.5366 26.7305 64.9556C25.7926 66.2778 25.5089 67.8279 25.26 69.5661C23.9728 78.5467 23.2439 87.5963 23.0773 96.6645C23.0773 98.7047 23.0252 100.813 21.9194 102.426C21.2763 103.31 20.2795 103.88 19.181 103.993C18.5071 104.08 17.8308 103.852 17.3515 103.378C16.651 102.654 16.5294 101.503 16.46 100.283C16.2573 96.5961 16.1531 92.8348 16.0547 89.1875L16.0492 88.9902C15.8715 82.5833 15.688 75.9687 14.9373 69.5718Z" fill="#093F68"/>
<path id="Rectangle" d="M56.3706 69.7306L61.0589 65.7974L64.7053 70.009L60.0171 73.9422L56.3706 69.7306Z" fill="#080C20"/>
<path id="Shape_3" fill-rule="evenodd" clip-rule="evenodd" d="M59.5742 74.3018C59.6842 74.4284 59.845 74.5013 60.0142 74.5013C60.1522 74.5013 60.2857 74.4528 60.3906 74.3645L65.08 70.4323C65.1971 70.3346 65.27 70.1952 65.2827 70.0447C65.2945 69.8934 65.2445 69.7436 65.1437 69.6287L61.4964 65.4172C61.3965 65.3023 61.2545 65.2312 61.1014 65.2194C60.9483 65.2077 60.7967 65.2563 60.68 65.3545L55.9964 69.2868C55.8793 69.3844 55.8064 69.5238 55.7937 69.6743C55.7803 69.8249 55.8282 69.9745 55.9269 70.0903L59.5742 74.3018ZM60.0779 73.1279L57.1832 69.7826L60.9869 66.5912L63.8816 69.9365L60.0779 73.1279Z" fill="#093F68"/>
<path id="Path_3" d="M64.7038 69.9992L85.9859 53.0392C86.7317 52.4553 87.2047 51.5982 87.2964 50.6645C87.3881 49.7308 87.0906 48.8005 86.4722 48.0868C85.8537 47.3738 84.9678 46.9385 84.0172 46.8805C83.0666 46.8225 82.1327 47.1467 81.4296 47.779L61.0564 65.7763L64.7038 69.9992Z" fill="#080C20"/>
<path id="Shape_4" fill-rule="evenodd" clip-rule="evenodd" d="M64.2636 70.3696C64.3736 70.4962 64.5344 70.5691 64.7036 70.5691C64.839 70.5632 64.9681 70.5108 65.0683 70.4209L86.3446 53.4723C87.5188 52.5577 88.0919 51.0849 87.839 49.6322C87.5861 48.1795 86.5476 46.9786 85.1311 46.501C83.7145 46.0234 82.1461 46.3452 81.0415 47.3402L60.6683 65.3602C60.4326 65.5676 60.4094 65.9227 60.6162 66.1581L64.2636 70.3696ZM64.7615 69.207L61.8667 65.8389L81.7999 48.2236C82.3885 47.6953 83.1703 47.4257 83.9652 47.477C85.168 47.5607 86.1965 48.3601 86.5582 49.4925C86.92 50.6248 86.5413 51.8597 85.6036 52.606L64.7615 69.207Z" fill="#093F68"/>
<path id="Rectangle_2" d="M54.2507 73.3199C53.5066 72.4605 53.6105 71.1583 54.4813 70.4277C55.3332 69.713 56.601 69.8141 57.3288 70.6548L59.1999 72.8158C59.9439 73.6751 59.8401 74.9774 58.9692 75.708C58.1173 76.4227 56.8496 76.3216 56.1217 75.4809L54.2507 73.3199Z" fill="#080C20"/>
<path id="Shape_5" fill-rule="evenodd" clip-rule="evenodd" d="M56.1642 76.4047C56.5169 76.8108 57.0341 77.0424 57.5768 77.0373C58.021 77.0429 58.4525 76.8913 58.7926 76.6099L59.9505 75.6297C60.3295 75.3174 60.5635 74.8669 60.5989 74.3816C60.6393 73.8971 60.4808 73.4168 60.1589 73.0481L57.2642 69.7313C56.9452 69.3602 56.4886 69.1304 55.9963 69.093C55.5047 69.0589 55.0189 69.2142 54.6415 69.5261L53.4836 70.5063C52.7022 71.162 52.6064 72.3162 53.2694 73.088L56.1642 76.4047ZM55.4173 70.3639C55.546 70.2588 55.7075 70.2005 55.8747 70.1986L55.9268 70.2043C56.1139 70.2146 56.2881 70.3014 56.4073 70.4437L59.3021 73.7604C59.4238 73.8993 59.4842 74.0802 59.4701 74.2631C59.456 74.446 59.3684 74.6158 59.2268 74.7349L58.0689 75.7152C57.9272 75.833 57.7446 75.8922 57.5594 75.8804C57.3724 75.8654 57.1993 75.7771 57.0789 75.6354L54.1842 72.3186C54.0611 72.181 54.0004 71.9998 54.0163 71.8171C54.0331 71.6347 54.1201 71.4655 54.2594 71.3441L55.4173 70.3639Z" fill="#093F68"/>
<path id="Path_4" d="M53.472 71.2758L58.0051 76.5074C58.0051 76.5074 57.7504 78.6616 53.9525 80.924C53.0259 81.4725 52.0582 81.9506 51.0578 82.3545C44.4693 85.0387 40.5151 80.4738 40.5151 80.4738C44.3709 81.9897 45.633 78.4393 46.8836 74.6381L47.0399 74.1708C48.3193 70.1987 53.472 71.2758 53.472 71.2758Z" fill="#080C20"/>
<path id="Shape_6" fill-rule="evenodd" clip-rule="evenodd" d="M40.058 80.8385C41.881 82.6911 44.3852 83.7428 47.0053 83.7564C48.4692 83.7424 49.9156 83.4421 51.2606 82.873C52.2877 82.4574 53.2823 81.9679 54.2364 81.4084C58.2427 79.0263 58.5785 76.6669 58.5785 76.57C58.5951 76.4129 58.5448 76.2561 58.4395 76.1369L53.9064 70.8996C53.8262 70.8017 53.7134 70.7351 53.5879 70.7115C51.6311 70.3012 47.6248 70.4665 46.4669 73.9827L46.3106 74.4614C45.5637 76.741 44.7127 79.3283 43.1611 80.0464C42.3669 80.3583 41.4748 80.3189 40.7122 79.9381C40.4646 79.8406 40.1814 79.9222 40.0263 80.1357C39.8711 80.3492 39.8842 80.6394 40.058 80.8385ZM50.8206 81.8187C47.0169 83.3745 44.1743 82.3829 42.5358 81.3799C42.9248 81.346 43.3049 81.2457 43.659 81.0836C45.6706 80.1531 46.5919 77.3358 47.4056 74.8477L47.4164 74.8148L47.5727 74.3418C48.5801 71.2643 52.2737 71.6519 53.1653 71.7943L57.3743 76.6498C57.1774 77.214 56.4248 78.7812 53.6458 80.4339C52.74 80.9633 51.7956 81.4261 50.8206 81.8187Z" fill="#093F68"/>
<path id="Path_5" d="M40.8568 76.1483C41.1205 76.772 41.4546 77.3646 41.8526 77.915C42.362 78.4849 43.3868 78.3196 43.9947 78.0062C44.614 77.6644 45.1357 77.1744 45.5115 76.5815C45.9052 76.0116 46.2236 75.3847 46.6115 74.8034C46.6632 74.7078 46.7416 74.6288 46.8373 74.5754C47.1673 74.4102 47.4741 74.9459 47.561 75.1795C47.7027 75.5854 47.796 76.0062 47.8389 76.4333C47.9026 76.8835 47.9489 77.3337 47.9952 77.7839C47.9816 78.0263 48.019 78.2688 48.1052 78.4963C48.1571 78.5946 48.2467 78.6684 48.3541 78.7015C48.4297 78.7142 48.5073 78.7084 48.5799 78.6844C48.991 78.5305 49.3499 78.274 49.7668 78.1544C50.1904 77.9886 50.6741 78.1385 50.9247 78.5134C51.081 78.8382 50.9247 79.2258 50.9768 79.5848C51.03 79.9772 51.314 80.3015 51.7005 80.4111C51.9636 80.4609 52.2322 80.4762 52.4994 80.4567C53.0186 80.4711 53.5212 80.64 53.941 80.9411C53.0143 81.4896 52.0466 81.9677 51.0462 82.3716C47.2744 83.9078 42.9386 83.1349 39.9536 80.394C39.2443 79.7633 38.8158 78.8829 38.761 77.9435" fill="#3EE9E5"/>
<path id="Path_6" d="M47.0111 83.6994C44.2404 83.7221 41.5683 82.6888 39.5542 80.8157C38.7332 80.0811 38.2401 79.057 38.1821 77.9663C38.1821 77.6515 38.4413 77.3964 38.7611 77.3964C39.0808 77.3964 39.34 77.6515 39.34 77.9663C39.3956 78.7517 39.7589 79.4852 40.3532 80.0122C43.1761 82.5901 47.2703 83.3034 50.8205 81.8358C51.4516 81.5794 52.0421 81.3115 52.5979 81.0266H52.2737C52.0265 81.0443 51.7779 81.0212 51.5384 80.9582C50.9184 80.7924 50.4613 80.2749 50.3806 79.6475C50.3547 79.4583 50.3547 79.2667 50.3806 79.0776C50.4021 78.9627 50.4021 78.8448 50.3806 78.7299C50.2479 78.6355 50.0755 78.614 49.9232 78.6729C49.7221 78.7372 49.5282 78.8212 49.3442 78.9237C49.1563 79.0233 48.9631 79.1127 48.7653 79.1915C48.5815 79.263 48.3815 79.2846 48.1863 79.2542C47.9265 79.1923 47.7044 79.0273 47.5727 78.7983C47.436 78.5463 47.3701 78.2631 47.3816 77.9777C47.3816 77.9264 47.3816 77.8808 47.3816 77.8409V77.5844C47.3411 77.2254 47.3063 76.8664 47.2542 76.5073C47.2117 76.1204 47.1302 75.7386 47.0111 75.3676L46.9705 75.2821C46.8374 75.4872 46.7158 75.6981 46.5884 75.909C46.3974 76.2338 46.2006 76.57 45.9748 76.8892C45.5455 77.5641 44.9475 78.1194 44.2379 78.502C43.3348 78.9636 42.0669 79.032 41.3953 78.2797C41.063 77.881 40.7936 77.4353 40.5963 76.9576C40.5095 76.7752 40.4227 76.5871 40.3242 76.3877C40.1644 76.1107 40.2629 75.7586 40.5442 75.6012C40.8256 75.4438 41.1833 75.5408 41.3432 75.8178C41.4532 76.0229 41.5516 76.2281 41.65 76.439C41.805 76.8115 42.0094 77.1622 42.2579 77.4819C42.5184 77.7668 43.219 77.6927 43.7111 77.442C44.2415 77.1429 44.6874 76.7177 45.0079 76.2053C45.2105 75.9147 45.39 75.6354 45.5869 75.2878C45.7837 74.9401 45.9284 74.7179 46.1137 74.4329C46.2233 74.2537 46.3791 74.1063 46.5653 74.0055C46.7898 73.9056 47.0471 73.9056 47.2716 74.0055C47.6556 74.2066 47.9489 74.5421 48.0937 74.9458C48.2446 75.3937 48.3475 75.856 48.4005 76.325C48.4527 76.6954 48.4932 77.0715 48.5337 77.4648V77.7155C48.5337 77.7782 48.5337 77.8466 48.5337 77.9264C48.5369 77.9624 48.5369 77.9986 48.5337 78.0347L48.7942 77.9093C49.042 77.7704 49.304 77.6577 49.5758 77.573C50.2661 77.3308 51.0337 77.609 51.3995 78.2341C51.5242 78.5294 51.5624 78.8532 51.5095 79.1687C51.5014 79.2712 51.5014 79.3741 51.5095 79.4765C51.5373 79.6411 51.6554 79.7771 51.8163 79.8298C51.9488 79.8487 52.0833 79.8487 52.2158 79.8298H52.4763C53.0992 79.8496 53.7028 80.0477 54.2132 80.3997C54.3718 80.5107 54.4631 80.6927 54.4563 80.8841C54.4496 81.076 54.3451 81.2517 54.1784 81.3514C53.2244 81.9109 52.2298 82.4004 51.2027 82.8161C49.8771 83.3761 48.4533 83.6762 47.0111 83.6994Z" fill="#093F68"/>
<path id="Path_7" d="M41.592 91.1308C41.702 89.7289 41.4531 87.4892 40.2894 86.4748C37.771 84.2693 36.0052 87.9166 35.9126 89.8941C35.7916 91.0776 36.0858 92.2661 36.7462 93.2622C37.4504 94.2626 38.7512 94.6699 39.9131 94.2538C41.0536 93.758 41.4994 92.3618 41.592 91.1308Z" fill="#3EE9E5"/>
<path id="Shape_7" fill-rule="evenodd" clip-rule="evenodd" d="M36.2831 93.6212C36.9233 94.4877 37.939 95.0087 39.0273 95.0288C39.4167 95.0297 39.8017 94.948 40.1563 94.7895C41.7252 94.0828 42.0899 92.2193 42.171 91.1764C42.2984 89.5237 41.9799 87.1871 40.6715 86.0473C39.5136 85.0329 38.5178 85.1298 37.8868 85.3977C36.2599 86.0701 35.4031 88.4694 35.3336 89.8827C35.1961 91.1998 35.532 92.5227 36.2831 93.6212ZM38.3268 86.4463C38.4551 86.3859 38.5956 86.3548 38.7378 86.3551C39.1818 86.3871 39.5972 86.5824 39.9015 86.9022C40.822 87.7057 41.1231 89.6377 41.0131 91.0909C40.961 91.7292 40.7352 93.2736 39.6641 93.758C38.8073 94.1455 37.742 93.644 37.2094 92.9373C36.6221 92.0511 36.3662 90.9913 36.4857 89.9397C36.5494 88.6232 37.3484 86.8509 38.3268 86.4463Z" fill="#093F68"/>
<path id="Path_8" d="M21.5432 20.8972L31.889 15.8081V6.11992L21.5432 1.01938C18.8801 -0.291374 15.5801 1.36701 15.5801 4.02841V17.9167C15.5801 20.5553 18.8801 22.208 21.5432 20.8972Z" fill="#080C20"/>
<path id="Shape_8" fill-rule="evenodd" clip-rule="evenodd" d="M16.9462 21.205C17.7316 21.6797 18.6356 21.9303 19.5573 21.9287C20.3368 21.9299 21.1059 21.7524 21.8036 21.4101L32.161 16.3324C32.3557 16.2358 32.4787 16.0398 32.4794 15.8252V6.13702C32.4809 5.92037 32.3575 5.7216 32.161 5.62411L21.8152 0.534973C20.2677 -0.222388 18.4337 -0.144923 16.9578 0.740134C15.7602 1.41797 15.0159 2.66862 15.001 4.02841V17.9167C15.0135 19.2741 15.7531 20.5243 16.9462 21.205ZM17.5541 1.70325C18.1559 1.33553 18.849 1.13833 19.5573 1.13336C20.1601 1.13004 20.7551 1.26672 21.2941 1.53228L31.3215 6.46755V15.4548L21.2941 20.39C20.107 20.9725 18.6992 20.9144 17.5657 20.2362C16.7129 19.7625 16.1779 18.8804 16.1589 17.9167V4.02841C16.1735 3.06501 16.704 2.18087 17.5541 1.70325Z" fill="#093F68"/>
<path id="Path_9" d="M23.0717 14.8564C22.7896 14.8588 22.5468 14.6609 22.4967 14.3877C22.4467 14.1144 22.6039 13.8455 22.869 13.7508L29.9206 11.1122L20.5764 8.94087C20.3696 8.89404 20.2038 8.74215 20.1416 8.54241C20.0794 8.34267 20.1301 8.12543 20.2747 7.97252C20.4194 7.81961 20.6359 7.75426 20.8427 7.80109L32.0222 10.3998C32.2709 10.456 32.4529 10.6659 32.4703 10.9165C32.4876 11.1672 32.3362 11.3994 32.0974 11.4883L23.2801 14.7937C23.2157 14.8285 23.1448 14.8498 23.0717 14.8564Z" fill="#093F68"/>
<path id="Path_10" d="M49.0374 20.8972L38.6917 15.8081V6.1199L49.0374 1.02506C51.7006 -0.285689 55.0122 1.3727 55.0122 4.0113V17.9167C55.0122 20.5553 51.7006 22.208 49.0374 20.8972Z" fill="#080C20"/>
<path id="Shape_9" fill-rule="evenodd" clip-rule="evenodd" d="M48.7768 21.4101C49.4745 21.7524 50.2436 21.9299 51.0231 21.9287C51.9446 21.9294 52.8484 21.6789 53.6341 21.205C54.8318 20.5271 55.576 19.2765 55.591 17.9167V4.02842C55.5822 2.66251 54.8371 1.40396 53.6341 0.723045C52.1583 -0.162012 50.3242 -0.239477 48.7768 0.517883L38.431 5.60702C38.2344 5.70451 38.111 5.90328 38.1126 6.11993V15.8081C38.1132 16.0227 38.2363 16.2187 38.431 16.3153L48.7768 21.4101ZM49.2978 20.39L39.2705 15.4548V6.49036L49.2978 1.55509C50.4845 0.97044 51.8934 1.02859 53.0262 1.70896C53.879 2.18266 54.414 3.06471 54.4331 4.02842V17.9167C54.414 18.8804 53.879 19.7625 53.0262 20.2362C51.8928 20.9144 50.485 20.9725 49.2978 20.39Z" fill="#093F68"/>
<path id="Path_11" d="M47.5088 14.8564C47.4374 14.857 47.3665 14.8434 47.3004 14.8165L38.4831 11.494C38.2443 11.4052 38.0929 11.1729 38.1102 10.9223C38.1276 10.6716 38.3096 10.4617 38.5583 10.4055L49.7378 7.80682C49.9446 7.76 50.1611 7.82535 50.3058 7.97826C50.4504 8.13117 50.5011 8.34841 50.4389 8.54815C50.3767 8.74789 50.2109 8.89978 50.0041 8.94661L40.6599 11.1179L47.7115 13.7166C47.9766 13.8113 48.1338 14.0803 48.0838 14.3535C48.0337 14.6267 47.7909 14.8247 47.5088 14.8222V14.8564Z" fill="#093F68"/>
<rect id="Rectangle_3" x="30.7542" y="5.33917" width="9.06632" height="11.2383" rx="3.91" fill="#080C20"/>
<path id="Shape_10" fill-rule="evenodd" clip-rule="evenodd" d="M33.0353 17.136H37.58C39.1406 17.1298 40.4068 15.891 40.4226 14.3549V7.56746C40.4194 6.02337 39.1486 4.77242 37.58 4.76929H33.0353C31.4666 4.77242 30.1958 6.02337 30.1926 7.56746V14.3378C30.199 15.8806 31.468 17.1297 33.0353 17.136ZM31.3332 7.56746C31.3363 6.65286 32.0888 5.9122 33.0179 5.90907H37.58C38.5091 5.9122 39.2616 6.65286 39.2647 7.56746V14.3378C39.2616 15.2524 38.5091 15.993 37.58 15.9962H33.0179C32.0955 15.9931 31.3458 15.2628 31.3332 14.3549V7.56746Z" fill="#093F68"/>
</g>
</g>
</g>
</svg>
