<svg width="74" height="89" viewBox="0 0 74 89" fill="none" xmlns="http://www.w3.org/2000/svg">
<g id="money_jar 2">
<g id="money_jar">
<path id="Path" d="M69.9246 24.4613C66.698 20.4755 59.8911 20.257 58.052 14.3164C56.2129 8.37582 56.7461 5.8587 56.7461 5.8587H16.5793C16.5793 5.8587 17.1235 8.37036 15.2735 14.3164C13.4235 20.2625 6.62742 20.47 3.40081 24.4613C0.544189 27.9995 0.544189 33.2248 0.544189 38.7614V75.5026C0.544189 81.4486 3.29742 87.7005 9.83772 87.7005H63.4877C70.0171 87.7005 72.7812 81.4486 72.7812 75.5026V38.7614C72.7812 33.2248 72.7812 27.9995 69.9246 24.4613Z" fill="#080C20"/>
<path id="Shape" fill-rule="evenodd" clip-rule="evenodd" d="M9.83765 88.2464H63.4876C70.2837 88.2464 73.3253 81.8417 73.3797 75.5079V38.7668C73.3797 33.1319 73.3797 27.8083 70.4034 24.1227C69.0291 22.4275 67.053 21.3853 65.1408 20.3768L65.1309 20.3716C62.2906 18.8864 59.6299 17.4832 58.6015 14.158C56.844 8.46307 57.3119 5.96779 57.3119 5.96779C57.3452 5.80543 57.3031 5.6367 57.1976 5.50914C57.0951 5.38232 56.9414 5.3082 56.7787 5.30712H16.6119C16.4466 5.30376 16.2887 5.37601 16.1829 5.50347C16.077 5.63093 16.0347 5.79978 16.0678 5.96233L16.0681 5.96414C16.0826 6.04671 16.5175 8.52744 14.7782 14.1525C13.7281 17.4777 11.0674 18.881 8.24882 20.3661C8.20364 20.3902 8.15842 20.4143 8.11318 20.4384C6.24042 21.4362 4.32047 22.4592 2.97632 24.1172C0 27.8028 0 33.1264 0 38.7613V75.5025C0 81.8417 3.04162 88.2464 9.83765 88.2464ZM15.7957 14.4747C17.1506 10.0956 17.2431 7.52393 17.1832 6.4046H56.1747C56.1149 7.52393 56.2074 10.1066 57.5622 14.4747C58.7257 18.2337 61.7091 19.8067 64.5962 21.329L64.6031 21.3326C66.5021 22.3318 68.3031 23.2818 69.5328 24.8052C72.2534 28.1905 72.2534 33.3012 72.2534 38.7613V75.5025C72.2534 81.3011 69.5491 87.1544 63.504 87.1544H9.85397C3.82515 87.1544 1.10456 81.3011 1.10456 75.5025V38.7613C1.10456 33.323 1.10456 28.1905 3.82515 24.8052C5.05485 23.2818 6.85588 22.3318 8.75485 21.3326L8.76172 21.329C11.6489 19.8067 14.6322 18.2337 15.7957 14.4747Z" fill="#093F68"/>
<path id="Shape_2" fill-rule="evenodd" clip-rule="evenodd" d="M9.83759 84.9704H63.4876C69.7919 84.9704 70.0543 76.7041 70.0917 75.5263C70.0922 75.5097 70.0927 75.4945 70.0932 75.4807V38.7395C70.0932 33.7217 70.0932 28.9659 67.846 26.1813C66.8938 25.0073 65.2886 24.161 63.5855 23.2656L63.4698 23.2037C60.5193 21.6263 56.8961 19.6894 55.4836 15.1245C54.828 12.7856 54.3747 10.3943 54.1288 7.97721C54.0956 7.70149 53.8614 7.49471 53.5846 7.49672H19.7949C19.5182 7.49471 19.284 7.70149 19.2508 7.97721C18.999 10.4023 18.5384 12.801 17.8742 15.1464C16.4432 19.7711 12.7432 21.7203 9.76685 23.2874L9.76421 23.2888C8.06754 24.1837 6.46357 25.0298 5.51185 26.2031C3.26465 28.9659 3.26465 33.7217 3.26465 38.7614V75.5025C3.26465 76.469 3.44421 84.9704 9.83759 84.9704ZM18.9135 15.4467C19.55 13.2023 19.9978 10.9083 20.252 8.58874H53.0732C53.3274 10.9083 53.7751 13.2023 54.4117 15.4467C55.9788 20.5027 59.8964 22.594 63.0523 24.232C64.6466 25.0729 66.1538 25.87 66.9645 26.8692C68.9723 29.3536 68.9723 33.9237 68.9723 38.7614V75.5025C68.9723 76.3598 68.8199 83.8784 63.4876 83.8784H9.83759C4.50524 83.8784 4.35288 76.3598 4.35288 75.5025V38.7614C4.35288 33.9237 4.35288 29.3536 6.36068 26.8692C7.17141 25.87 8.67862 25.0729 10.2783 24.232C10.3189 24.2102 10.3597 24.1884 10.4005 24.1666C13.5294 22.4917 17.3666 20.4376 18.9135 15.4467Z" fill="#093F68"/>
<path id="Path_2" d="M13.0643 0.529602H60.261C62.5869 0.529602 64.4725 2.42171 64.4725 4.75574V7.4858C64.4725 8.10994 64.2254 8.70851 63.7856 9.14984C63.3458 9.59117 62.7493 9.83911 62.1273 9.83911H11.1979C10.576 9.83911 9.97946 9.59117 9.53966 9.14984C9.09986 8.70851 8.85278 8.10994 8.85278 7.4858V4.75574C8.85278 2.42171 10.7383 0.529602 13.0643 0.529602Z" fill="#080C20"/>
<path id="Shape_3" fill-rule="evenodd" clip-rule="evenodd" d="M11.1979 10.4015H62.1273C63.723 10.4015 65.0165 9.10346 65.0165 7.50221V4.77215C65.0135 2.13781 62.8861 0.00300895 60.2609 0H13.0642C10.439 0.00300895 8.31159 2.13781 8.30859 4.77215V7.50221C8.30859 9.10346 9.60216 10.4015 11.1979 10.4015ZM10.471 2.15353C11.1587 1.46337 12.0915 1.07564 13.0642 1.07564H60.2609C62.2864 1.07564 63.9283 2.72329 63.9283 4.75577V7.48583C63.9283 8.48397 63.122 9.29313 62.1273 9.29313H11.1979C10.2032 9.29313 9.39683 8.48397 9.39683 7.48583V4.75577C9.39683 3.77974 9.78321 2.84368 10.471 2.15353Z" fill="#093F68"/>
<rect id="Rectangle" x="12.0305" y="45.7176" width="32.4022" height="7.57319" rx="3.7866" fill="#3EE9E5"/>
<path id="Shape_4" fill-rule="evenodd" clip-rule="evenodd" d="M14.2069 53.8368H42.2562C43.7587 53.8368 44.9768 52.6145 44.9768 51.1067V47.9016C44.9768 46.3939 43.7587 45.1716 42.2562 45.1716H14.2069C12.7044 45.1716 11.4863 46.3939 11.4863 47.9016V51.1067C11.4863 52.6145 12.7044 53.8368 14.2069 53.8368ZM12.5746 47.9016C12.5746 46.997 13.3054 46.2636 14.2069 46.2636H42.2562C43.1577 46.2636 43.8885 46.997 43.8885 47.9016V51.1067C43.8885 52.0114 43.1577 52.7448 42.2562 52.7448H14.2069C13.3054 52.7448 12.5746 52.0114 12.5746 51.1067V47.9016Z" fill="#093F68"/>
<rect id="Rectangle_2" x="15.355" y="53.2908" width="32.4022" height="7.57319" rx="3.7866" fill="#3EE9E5"/>
<path id="Shape_5" fill-rule="evenodd" clip-rule="evenodd" d="M17.5314 61.4209H45.5806C46.3022 61.4209 46.9942 61.1333 47.5044 60.6213C48.0146 60.1093 48.3012 59.4149 48.3012 58.6909V55.4803C48.3012 53.9725 47.0832 52.7502 45.5806 52.7502H17.5314C16.0288 52.7502 14.8108 53.9725 14.8108 55.4803V58.6909C14.8108 60.1986 16.0288 61.4209 17.5314 61.4209ZM15.899 55.4803C15.899 54.5756 16.6299 53.8423 17.5314 53.8423H45.5806C46.4822 53.8423 47.213 54.5756 47.213 55.4803V58.6909C47.213 59.5955 46.4822 60.3289 45.5806 60.3289H17.5314C16.6299 60.3289 15.899 59.5955 15.899 58.6909V55.4803Z" fill="#093F68"/>
<rect id="Rectangle_3" x="43.426" y="68.459" width="32.4022" height="7.57319" rx="3.7866" transform="rotate(-180 43.426 68.459)" fill="#3EE9E5"/>
<path id="Shape_6" fill-rule="evenodd" clip-rule="evenodd" d="M13.2003 69.0051H41.2496C41.973 69.0051 42.6667 68.7159 43.1772 68.2016C43.6877 67.6872 43.9731 66.99 43.9702 66.2641V63.059C43.9702 61.5512 42.7521 60.3289 41.2496 60.3289H13.2003C11.6978 60.3289 10.4797 61.5512 10.4797 63.059V66.275C10.4797 67.7828 11.6978 69.0051 13.2003 69.0051ZM11.568 63.059C11.568 62.1543 12.2988 61.4209 13.2003 61.4209H41.2496C42.1511 61.4209 42.8819 62.1543 42.8819 63.059V66.2641C42.8819 67.1687 42.1511 67.9021 41.2496 67.9021H13.2003C12.2988 67.9021 11.568 67.1687 11.568 66.2641V63.059Z" fill="#093F68"/>
<rect id="Rectangle_4" x="38.8608" y="76.0322" width="32.4022" height="7.57319" rx="3.7866" transform="rotate(-180 38.8608 76.0322)" fill="#3EE9E5"/>
<path id="Shape_7" fill-rule="evenodd" clip-rule="evenodd" d="M8.63514 76.5782H36.6626C38.1652 76.5782 39.3832 75.3559 39.3832 73.8482V70.6431C39.3832 69.1353 38.1652 67.913 36.6626 67.913H8.63514C7.1326 67.913 5.91455 69.1353 5.91455 70.6431V73.8482C5.91455 75.3559 7.1326 76.5782 8.63514 76.5782ZM6.98102 70.6431C6.98102 69.7384 7.71185 69.005 8.61337 69.005H36.6626C37.5642 69.005 38.295 69.7384 38.295 70.6431V73.8482C38.295 74.7528 37.5642 75.4862 36.6626 75.4862H8.61337C7.71185 75.4862 6.98102 74.7528 6.98102 73.8482V70.6431Z" fill="#093F68"/>
<rect id="Rectangle_5" x="43.426" y="83.6108" width="32.4022" height="7.57319" rx="3.7866" transform="rotate(-180 43.426 83.6108)" fill="#3EE9E5"/>
<path id="Shape_8" fill-rule="evenodd" clip-rule="evenodd" d="M13.2003 84.1569H41.2496C42.7521 84.1569 43.9702 82.9346 43.9702 81.4268V78.2163C43.9702 76.7085 42.7521 75.4862 41.2496 75.4862H13.2003C11.6978 75.4862 10.4797 76.7085 10.4797 78.2163V81.4268C10.4797 82.9346 11.6978 84.1569 13.2003 84.1569ZM11.568 78.2163C11.568 77.3116 12.2988 76.5782 13.2003 76.5782H41.2496C42.1511 76.5782 42.8819 77.3116 42.8819 78.2163V81.4268C42.8819 82.3315 42.1511 83.0649 41.2496 83.0649H13.2003C12.2988 83.0649 11.568 82.3315 11.568 81.4268V78.2163Z" fill="#093F68"/>
<path id="Rectangle_6" d="M66.7484 52.4672C68.6366 53.343 69.4598 55.5817 68.5889 57.4721L58.1523 80.1274C57.2781 82.0249 55.0292 82.8519 53.134 81.9728C51.2459 81.0969 50.4227 78.8582 51.2935 76.9678L61.7302 54.3125C62.6043 52.415 64.8532 51.588 66.7484 52.4672Z" fill="#3EE9E5"/>
<path id="Shape_9" fill-rule="evenodd" clip-rule="evenodd" d="M54.3628 83.1413C54.7194 83.3064 55.1073 83.3921 55.5 83.3925C56.5606 83.393 57.5249 82.7749 57.9703 81.809L69.7396 56.2611C70.043 55.6037 70.0735 54.8523 69.8245 54.1723C69.5755 53.4923 69.0673 52.9395 68.4119 52.6356L65.5118 51.2924C64.8567 50.988 64.1078 50.9573 63.4302 51.2072C62.7525 51.4571 62.2017 51.967 61.8988 52.6247L50.1296 78.1726C49.5015 79.5402 50.0955 81.1599 51.4572 81.7927L54.3628 83.1413ZM63.825 52.2425C63.9986 52.1749 64.183 52.1398 64.3691 52.1387C64.608 52.1321 64.8454 52.1768 65.0656 52.2698L67.9658 53.6184C68.3618 53.8001 68.6691 54.133 68.8193 54.5432C68.9695 54.9533 68.9502 55.4067 68.7656 55.8025L56.9746 81.3504C56.7925 81.7468 56.4604 82.054 56.0517 82.2036C55.6431 82.3533 55.1918 82.3331 54.7981 82.1476L51.898 80.8044C51.5206 80.6167 51.2301 80.29 51.0872 79.8925C50.9343 79.4862 50.952 79.0351 51.1362 78.6422L62.9055 53.0942C63.0871 52.699 63.4179 52.3925 63.825 52.2425Z" fill="#093F68"/>
<path id="Rectangle_7" d="M61.6123 46.3251C63.4036 47.3852 63.9995 49.6946 62.9449 51.4891L50.3123 72.984C49.2531 74.7862 46.9315 75.3853 45.1326 74.3207C43.3413 73.2606 42.7454 70.9512 43.8 69.1567L56.4327 47.6618C57.4918 45.8596 59.8134 45.2605 61.6123 46.3251Z" fill="#3EE9E5"/>
<path id="Shape_10" fill-rule="evenodd" clip-rule="evenodd" d="M46.2445 75.6118C46.6618 75.858 47.137 75.9881 47.6211 75.9885C48.5902 75.9992 49.4918 75.4917 49.988 74.6562L64.233 50.4133C64.6004 49.7899 64.7059 49.0456 64.5263 48.3441C64.3467 47.6427 63.8967 47.0416 63.2754 46.6731L60.5221 45.0351C59.9009 44.6664 59.1592 44.5605 58.4601 44.7407C57.7611 44.921 57.1621 45.3725 56.7949 45.9961L42.5281 70.2336C42.1612 70.8576 42.0565 71.6024 42.2372 72.304C42.4178 73.0055 42.869 73.6062 43.4912 73.9737L46.2445 75.6118ZM58.7156 45.7995C58.8485 45.7626 58.9859 45.7442 59.1237 45.7449C59.4149 45.746 59.7004 45.8251 59.9508 45.9742L62.704 47.6123C63.0772 47.833 63.3477 48.1935 63.4559 48.6144C63.564 49.0353 63.5011 49.4821 63.2808 49.8564L49.0304 74.0993C48.8104 74.4738 48.4512 74.7452 48.0317 74.8538C47.6123 74.9623 47.167 74.8991 46.794 74.6781L44.0462 73.0401C43.6731 72.8193 43.4026 72.4588 43.2944 72.0379C43.1862 71.617 43.2492 71.1702 43.4695 70.7959L57.7145 46.553C57.9352 46.1783 58.2954 45.9072 58.7156 45.7995Z" fill="#093F68"/>
<ellipse id="Oval" cx="30.3346" cy="69.9606" rx="13.5812" ry="13.6285" fill="#3EE9E5"/>
<path id="Shape_11" fill-rule="evenodd" clip-rule="evenodd" d="M16.2507 71.2893C16.945 78.58 23.0524 84.144 30.3509 84.135C32.1306 84.1363 33.8941 83.7972 35.5473 83.1358C42.3321 80.4367 45.9571 73.0012 43.9164 65.9694C41.8757 58.9376 34.8392 54.6177 27.6711 55.9961C20.503 57.3744 15.5564 63.9986 16.2507 71.2893ZM17.3876 68.1857C18.2781 61.6896 23.8164 56.854 30.3509 56.8672C34.7386 56.8761 38.8286 59.0955 41.2381 62.7751C43.6477 66.4548 44.0547 71.1028 42.3215 75.1477C39.7404 81.1717 33.1194 84.3539 26.824 82.5961C20.5287 80.8384 16.4972 74.6818 17.3876 68.1857Z" fill="#093F68"/>
<ellipse id="Oval_2" cx="30.3346" cy="69.9605" rx="10.36" ry="10.3961" fill="#3EE9E5"/>
<path id="Shape_12" fill-rule="evenodd" clip-rule="evenodd" d="M19.5726 71.348C20.2542 76.7968 24.8621 80.8901 30.3346 80.9081C33.947 80.9039 37.3233 79.1065 39.3524 76.1075C41.3815 73.1084 41.8005 69.2962 40.4715 65.9255C38.4357 60.8281 32.9443 58.0406 27.646 59.4154C22.3477 60.7901 18.891 65.8992 19.5726 71.348ZM20.9846 67.0544C22.2454 62.9334 26.035 60.118 30.3305 60.1105C34.3557 60.1156 37.9721 62.5811 39.4595 66.335C41.0351 70.3469 39.8207 74.9208 36.4647 77.6141C33.1087 80.3075 28.3952 80.491 24.8413 78.0667C21.2875 75.6425 19.7235 71.1767 20.9846 67.0544ZM30.3305 60.1105C30.3319 60.1105 30.3332 60.1105 30.3346 60.1105H30.3237C30.326 60.1105 30.3282 60.1105 30.3305 60.1105Z" fill="#093F68"/>
<path id="Shape_13" fill-rule="evenodd" clip-rule="evenodd" d="M32.3096 78.2326L31.8199 76.9932C31.6501 77.0117 31.4834 77.0334 31.3188 77.0548L31.3188 77.0548C30.9982 77.0965 30.6854 77.1371 30.3726 77.1515C29.4489 77.2164 28.5305 76.9663 27.7662 76.4417C27.1217 75.974 26.6309 75.3238 26.357 74.5744L28.7674 73.6134C29.1381 74.4626 30.0301 74.9572 30.9439 74.8201L29.6434 71.544C29.4621 71.5604 29.2807 71.578 29.0993 71.5956C28.7366 71.6307 28.3738 71.6659 28.0111 71.6914C27.4283 71.7526 26.8395 71.6682 26.2971 71.4457C25.7199 71.1992 25.2358 70.7746 24.9151 70.2336C24.4904 69.5831 24.2549 68.8268 24.2349 68.0495C24.203 66.9252 24.6741 65.8456 25.519 65.1065C25.8649 64.8166 26.2283 64.5485 26.6073 64.3039L26.7379 64.2165L26.0904 62.5785L28.343 61.6776L28.4083 61.8414C28.4529 61.9547 28.4979 62.0677 28.5428 62.1805C28.6839 62.5352 28.8244 62.8883 28.9524 63.2446C28.9959 63.3647 29.0449 63.3866 29.1646 63.3647C29.9946 63.2056 30.851 63.2563 31.6567 63.5122C32.5089 63.7904 33.2293 64.3734 33.6808 65.1502C33.7686 65.2896 33.8441 65.434 33.9221 65.5834L33.9221 65.5834C33.9602 65.6562 33.9989 65.7302 34.0399 65.8054L31.5914 66.7773C31.3047 66.0979 30.6452 65.6524 29.9101 65.6416L31.1234 68.7047L31.4118 68.661C32.1294 68.5294 32.8596 68.4799 33.5883 68.5136C34.6844 68.5413 35.677 69.1703 36.1729 70.1517C37.1317 71.8069 36.7668 73.9141 35.3077 75.1477C35.0483 75.375 34.7692 75.5802 34.482 75.7914L34.482 75.7914C34.3415 75.8946 34.1992 75.9993 34.0562 76.1087L34.5296 77.3044L32.3096 78.2326ZM32.1083 71.1017L33.2346 73.9519C33.5793 73.7539 33.8635 73.465 34.0562 73.1165C34.2559 72.7521 34.2769 72.3157 34.1132 71.9337C33.9494 71.5517 33.6192 71.2669 33.2183 71.1618C32.846 71.1214 32.4719 71.1014 32.0974 71.1017H32.1083ZM27.5867 66.335L28.6749 69.0651C28.5522 69.0651 28.4328 69.0699 28.3155 69.0746C28.126 69.0822 27.9424 69.0895 27.7608 69.076C27.3374 69.0036 26.9785 68.7226 26.8054 68.328C26.6324 67.9335 26.6683 67.4781 26.9011 67.1158C27.1141 66.8422 27.343 66.5815 27.5867 66.335Z" fill="#093F68"/>
</g>
</g>
</svg>
