<svg width="104" height="74" viewBox="0 0 104 74" fill="none" xmlns="http://www.w3.org/2000/svg">
<g id="road_trip 2">
<g id="road_trip">
<rect id="Rectangle" x="22.8625" y="7.62463" width="28.9802" height="13.0865" fill="#080C20"/>
<path id="Shape" fill-rule="evenodd" clip-rule="evenodd" d="M22.8625 21.1384H51.847C52.0884 21.1384 52.284 20.9412 52.284 20.698V7.62462C52.284 7.38135 52.0884 7.18414 51.847 7.18414H22.8625C22.6212 7.18414 22.4255 7.38135 22.4255 7.62462V20.698C22.4255 20.9412 22.6212 21.1384 22.8625 21.1384ZM51.4101 20.2575H23.2995V8.0651H51.4101V20.2575Z" fill="#093F68"/>
<path id="Path" d="M101.133 61.2879H3.47827V44.9903C3.47913 43.3753 3.67279 41.7662 4.05508 40.1979C4.29348 39.2575 4.5957 38.3347 4.95962 37.4361L9.68331 25.7943L10.4174 23.9884C11.2196 22.0049 13.1299 20.7055 15.2547 20.698H59.7431C61.1525 20.698 62.5019 21.2732 63.4837 22.2925L66.8527 25.7767L78.367 37.696C80.3982 39.7953 83.1836 40.98 86.0927 40.9819H94.8322C97.1863 40.9863 99.1598 42.7762 99.4117 45.1356L99.9885 50.3288L101.133 61.2879Z" fill="#3EE9E5"/>
<path id="Shape_2" fill-rule="evenodd" clip-rule="evenodd" d="M3.47823 61.7283H101.133C101.259 61.7236 101.377 61.6642 101.457 61.5653C101.54 61.4718 101.58 61.3467 101.566 61.2218L99.8618 45.1179C99.8055 44.5502 99.6501 43.997 99.4029 43.4838C98.5698 41.7088 96.7977 40.5757 94.8497 40.5722H86.1102C83.3131 40.5753 80.6337 39.4378 78.6816 37.4184L63.7982 22.0018C62.7317 20.9002 61.2701 20.2779 59.7431 20.2751H15.2591C12.9626 20.2643 10.8888 21.6579 10.0154 23.7989L4.55319 37.251C4.18057 38.1753 3.87248 39.1246 3.63118 40.0921C3.24153 41.6953 3.04349 43.3396 3.04126 44.9902V61.2878C3.04126 61.5311 3.2369 61.7283 3.47823 61.7283ZM100.648 60.8473H3.91521L3.92832 45.0078C3.93017 43.43 4.11942 41.858 4.49202 40.3256C4.72004 39.3973 5.01206 38.4863 5.36597 37.599L10.8456 24.1513C11.5698 22.3358 13.3136 21.1442 15.2547 21.1384H59.7431C61.0396 21.1378 62.2813 21.6652 63.1865 22.6008L78.0655 38.0175C80.1786 40.2032 83.0781 41.4358 86.1058 41.4356H94.8453C96.4568 41.4391 97.9226 42.3767 98.612 43.845C98.8146 44.2689 98.9432 44.7249 98.9922 45.1928L100.648 60.8473Z" fill="#093F68"/>
<path id="Path_2" d="M2.10623 58.3543H9.31194V62.9837H2.10623C1.66236 62.9837 1.23667 62.806 0.922807 62.4896C0.608944 62.1732 0.432617 61.7441 0.432617 61.2967V60.0413C0.432617 59.1096 1.18192 58.3543 2.10623 58.3543Z" fill="#3EE9E5"/>
<path id="Shape_3" fill-rule="evenodd" clip-rule="evenodd" d="M2.10622 63.4242H9.29445C9.41334 63.429 9.52904 63.3847 9.6148 63.3016C9.70057 63.2184 9.749 63.1036 9.74891 62.9837V58.3543C9.74891 58.111 9.55327 57.9138 9.31193 57.9138H2.10622C0.94228 57.9162 -2.49463e-06 58.8681 0 60.0413V61.2967C-2.49463e-06 62.4699 0.94228 63.4217 2.10622 63.4242ZM0.87395 60.0413C0.873945 59.3546 1.42495 58.7972 2.10622 58.7948H8.87496V62.5432H2.10622C1.42495 62.5408 0.873945 61.9834 0.87395 61.2967V60.0413Z" fill="#093F68"/>
<path id="Path_3" d="M94.5483 58.3543H101.737C102.661 58.3543 103.41 59.1096 103.41 60.0413V61.2967C103.41 61.7441 103.234 62.1732 102.92 62.4896C102.606 62.806 102.18 62.9837 101.737 62.9837H94.5483V58.3543Z" fill="#3EE9E5"/>
<path id="Shape_4" fill-rule="evenodd" clip-rule="evenodd" d="M94.5483 63.4242H101.737C102.9 63.4217 103.843 62.4699 103.843 61.2967V60.0413C103.843 58.8681 102.9 57.9162 101.737 57.9138H94.5483C94.307 57.9138 94.1113 58.111 94.1113 58.3543V62.9837C94.1113 63.227 94.307 63.4242 94.5483 63.4242ZM101.737 62.5432H94.9678L94.9853 58.7948H101.737C102.418 58.7972 102.969 59.3546 102.969 60.0413V61.2967C102.969 61.9834 102.418 62.5408 101.737 62.5432Z" fill="#093F68"/>
<ellipse id="Oval" cx="85.1925" cy="62.3097" rx="11.1254" ry="11.2145" fill="#080C20"/>
<path id="Shape_5" fill-rule="evenodd" clip-rule="evenodd" d="M74.5099 66.7645C76.2993 71.1202 80.5156 73.9604 85.1926 73.9604C91.5736 73.9531 96.7453 68.7419 96.7549 62.3098C96.7567 57.5954 93.9407 53.3442 89.6203 51.5388C85.2999 49.7335 80.326 50.7295 77.0183 54.0625C73.7106 57.3954 72.7206 62.4088 74.5099 66.7645ZM75.3178 58.1867C76.9721 54.1607 80.8695 51.5357 85.1926 51.5357V51.5313C91.0953 51.5362 95.8786 56.3597 95.881 62.3098C95.881 66.6675 93.2768 70.5961 89.2828 72.2637C85.2889 73.9313 80.6916 73.0095 77.6347 69.9282C74.5779 66.8468 73.6634 62.2127 75.3178 58.1867Z" fill="#093F68"/>
<ellipse id="Oval_2" cx="85.1926" cy="62.3097" rx="5.39227" ry="5.43548" fill="#093F68"/>
<path id="Shape_6" fill-rule="evenodd" clip-rule="evenodd" d="M79.8072 64.5584C80.7094 66.7541 82.835 68.1857 85.1927 68.1857C88.4101 68.1809 91.0171 65.553 91.0219 62.3098C91.0219 59.9332 89.6017 57.7906 87.4235 56.8811C85.2452 55.9716 82.7379 56.4743 81.0708 58.1549C79.4036 59.8354 78.9049 62.3627 79.8072 64.5584ZM80.2374 62.3098C80.2374 59.5511 82.456 57.3148 85.1927 57.3148C87.9284 57.3172 90.1456 59.5521 90.148 62.3098C90.148 65.0684 87.9294 67.3048 85.1927 67.3048C82.456 67.3048 80.2374 65.0684 80.2374 62.3098Z" fill="#093F68"/>
<ellipse id="Oval_3" cx="17.4703" cy="62.3097" rx="11.1254" ry="11.2145" fill="#080C20"/>
<path id="Shape_7" fill-rule="evenodd" clip-rule="evenodd" d="M6.78752 66.7645C8.5769 71.1202 12.7932 73.9604 17.4702 73.9604C23.8522 73.9555 29.0253 68.7429 29.0325 62.3098C29.0343 57.5954 26.2183 53.3442 21.8979 51.5388C17.5775 49.7335 12.6036 50.7295 9.29589 54.0625C5.98817 57.3954 4.99815 62.4088 6.78752 66.7645ZM6.78176 62.3098C6.78176 56.3594 11.5671 51.5357 17.4702 51.5357V51.5313C23.3729 51.5362 28.1562 56.3597 28.1586 62.3098C28.1586 68.2601 23.3732 73.0838 17.4702 73.0838C11.5671 73.0838 6.78176 68.2601 6.78176 62.3098Z" fill="#093F68"/>
<ellipse id="Oval_4" cx="17.4701" cy="62.3097" rx="5.39227" ry="5.43548" fill="#093F68"/>
<path id="Shape_8" fill-rule="evenodd" clip-rule="evenodd" d="M11.6411 62.3098C11.6411 65.555 14.251 68.1857 17.4704 68.1857C20.6878 68.1809 23.2948 65.553 23.2996 62.3098C23.2996 59.0646 20.6898 56.4338 17.4704 56.4338C14.251 56.4338 11.6411 59.0646 11.6411 62.3098ZM12.5151 62.3098C12.5151 59.5511 14.7336 57.3148 17.4704 57.3148C20.2061 57.3172 22.4232 59.5521 22.4257 62.3098C22.4257 65.0685 20.2071 67.3048 17.4704 67.3048C14.7336 67.3048 12.5151 65.0685 12.5151 62.3098Z" fill="#093F68"/>
<path id="Path_4" d="M36.5399 25.7899V40.2155H4.05078C4.29058 39.2692 4.59425 38.3406 4.95969 37.436L9.68339 25.7943L36.5399 25.7899Z" fill="#080C20"/>
<path id="Shape_9" fill-rule="evenodd" clip-rule="evenodd" d="M4.05516 40.6559H36.5399C36.7812 40.6559 36.9768 40.4587 36.9768 40.2154V25.7898C36.9768 25.5466 36.7812 25.3494 36.5399 25.3494H9.67029C9.49229 25.3485 9.33154 25.4565 9.2639 25.6225L4.5402 37.2643C4.16885 38.1889 3.86079 39.1382 3.61819 40.1053C3.58371 40.2396 3.61402 40.3825 3.70001 40.4908C3.78599 40.5992 3.91759 40.6603 4.05516 40.6559ZM36.1029 39.775H4.64071H4.62323C4.82931 39.0364 5.07585 38.31 5.36172 37.599L9.9718 26.2303H36.1029V39.775Z" fill="#093F68"/>
<path id="Path_5" d="M82.0725 40.2155H41.8708V25.7899H66.8265L78.3408 37.7091C79.394 38.8022 80.6662 39.6566 82.0725 40.2155Z" fill="#080C20"/>
<path id="Shape_10" fill-rule="evenodd" clip-rule="evenodd" d="M82.055 40.656H82.0572C82.2663 40.6555 82.4458 40.5056 82.4852 40.2984C82.5248 40.0905 82.412 39.8837 82.2167 39.8059C80.8738 39.2654 79.6589 38.4459 78.651 37.4009L67.1367 25.4816C67.055 25.3975 66.9432 25.3499 66.8264 25.3494H41.8708C41.6295 25.3494 41.4338 25.5466 41.4338 25.7899V40.2155C41.4338 40.4588 41.6295 40.656 41.8708 40.656H82.055ZM80.2372 39.775H42.3078L42.334 26.2304H66.6691L78.0523 38.0131C78.7042 38.6907 79.4383 39.2827 80.2372 39.775Z" fill="#093F68"/>
<path id="Path_6" d="M70.9779 58.7948H32.6945C32.4532 58.7948 32.2576 58.5976 32.2576 58.3543C32.2576 58.111 32.4532 57.9138 32.6945 57.9138H70.9604C71.2018 57.9138 71.3974 58.111 71.3974 58.3543C71.3974 58.5976 71.2018 58.7948 70.9604 58.7948H70.9779Z" fill="#093F68"/>
<path id="Path_7" d="M38.9389 56.9448C38.6976 56.9448 38.502 56.7475 38.502 56.5043V42.5412C38.502 42.2979 38.6976 42.1007 38.9389 42.1007C39.1803 42.1007 39.3759 42.2979 39.3759 42.5412V56.5043C39.3759 56.7475 39.1803 56.9448 38.9389 56.9448Z" fill="#093F68"/>
<path id="Path_8" d="M49.2996 45.2942H44.5759C44.3346 45.2942 44.1389 45.097 44.1389 44.8537C44.1389 44.6104 44.3346 44.4132 44.5759 44.4132H49.2996C49.5409 44.4132 49.7366 44.6104 49.7366 44.8537C49.7366 45.097 49.5409 45.2942 49.2996 45.2942Z" fill="#093F68"/>
<path id="Path_9" d="M33.3019 45.2942H28.5957C28.3543 45.2942 28.1587 45.097 28.1587 44.8537C28.1587 44.6104 28.3543 44.4132 28.5957 44.4132H33.3019C33.5432 44.4132 33.7389 44.6104 33.7389 44.8537C33.7389 45.097 33.5432 45.2942 33.3019 45.2942Z" fill="#093F68"/>
<rect id="Rectangle_2" x="0.952637" y="43.6953" width="2.52571" height="7.4044" fill="#080C20"/>
<path id="Shape_11" fill-rule="evenodd" clip-rule="evenodd" d="M0.9526 51.5313H3.47831C3.71965 51.5313 3.91529 51.3341 3.91529 51.0908V43.6952C3.91529 43.452 3.71965 43.2548 3.47831 43.2548H0.9526C0.711265 43.2548 0.515625 43.452 0.515625 43.6952V51.0908C0.515625 51.3341 0.711265 51.5313 0.9526 51.5313ZM3.04134 50.6504H1.38957V44.1357H3.04134V50.6504Z" fill="#093F68"/>
<path id="Path_10" d="M99.9887 50.3288H96.3181C95.3165 50.3288 94.5046 49.5104 94.5046 48.5008V45.4792C94.5046 44.4696 95.3165 43.6512 96.3181 43.6512H99.0055C99.2343 44.1218 99.3821 44.6282 99.4425 45.1488L99.9887 50.3288Z" fill="#080C20"/>
<path id="Shape_12" fill-rule="evenodd" clip-rule="evenodd" d="M96.318 50.7693H99.9886C100.113 50.7702 100.233 50.7173 100.316 50.6239C100.399 50.5314 100.438 50.4083 100.426 50.2847L99.8575 45.1003C99.8005 44.5314 99.6452 43.9768 99.3987 43.4618C99.3264 43.3088 99.1735 43.2112 99.0054 43.2107H96.318C95.0762 43.2131 94.07 44.2273 94.0676 45.4791V48.5008C94.07 49.7526 95.0762 50.7668 96.318 50.7693ZM94.9547 45.4791C94.9547 44.7129 95.571 44.0916 96.3312 44.0916H98.7345C98.8715 44.4454 98.9626 44.8155 99.0054 45.1928L99.5036 49.8883H96.3312C95.571 49.8883 94.9547 49.2671 94.9547 48.5008V45.4791Z" fill="#093F68"/>
<path id="Path_11" d="M12.716 37.533C12.5785 37.533 12.449 37.4677 12.3664 37.3568C12.2969 37.2633 12.2671 37.1459 12.2834 37.0302C12.2998 36.9146 12.3611 36.8102 12.4538 36.7401L23.4743 28.4107C23.5671 28.3406 23.6836 28.3105 23.7983 28.3271C23.9131 28.3436 24.0166 28.4054 24.0861 28.4988C24.1556 28.5923 24.1855 28.7098 24.1691 28.8254C24.1527 28.941 24.0914 29.0454 23.9987 29.1155L12.9782 37.4361C12.9037 37.4964 12.8116 37.5305 12.716 37.533Z" fill="#093F68"/>
<path id="Path_12" d="M25.4581 36.1851C25.2723 36.1859 25.1063 36.0682 25.0444 35.8916C24.9824 35.715 25.0379 35.5183 25.1828 35.4011L33.0265 28.9217C33.1163 28.8473 33.2317 28.8119 33.3473 28.8235C33.4629 28.8351 33.5692 28.8926 33.6427 28.9833C33.7165 29.0738 33.7515 29.1901 33.74 29.3067C33.7286 29.4232 33.6715 29.5303 33.5815 29.6044L25.7378 36.0838C25.6592 36.1495 25.5602 36.1853 25.4581 36.1851Z" fill="#093F68"/>
<path id="Path_13" d="M46.9268 37.533C46.8042 37.5338 46.6869 37.4827 46.6035 37.392C46.5247 37.3053 46.4836 37.1903 46.4893 37.0729C46.495 36.9554 46.5472 36.8451 46.6341 36.7666L56.7282 27.4329C56.9068 27.2687 57.1836 27.2815 57.3465 27.4615C57.5094 27.6415 57.4967 27.9206 57.3181 28.0848L47.224 37.4361C47.1402 37.5042 47.0344 37.5387 46.9268 37.533Z" fill="#093F68"/>
<path id="Path_14" d="M60.3551 36.1851C60.2398 36.1834 60.1299 36.1359 60.0492 36.053C59.8798 35.8812 59.8798 35.6037 60.0492 35.4319L64.8559 30.5866C65.0263 30.4159 65.3016 30.4159 65.472 30.5866C65.6415 30.7584 65.6415 31.0359 65.472 31.2077L60.6653 36.053C60.5836 36.137 60.4719 36.1846 60.3551 36.1851Z" fill="#093F68"/>
<path id="Shape_13" fill-rule="evenodd" clip-rule="evenodd" d="M17.4003 21.1384H57.0252C57.1589 21.1333 57.2829 21.0668 57.3617 20.9579C57.444 20.8433 57.4668 20.6958 57.4229 20.5614L55.5351 14.7251C55.4765 14.544 55.309 14.4213 55.12 14.4212H19.2881C19.091 14.4115 18.912 14.536 18.8511 14.7251L16.9634 20.5614C16.9186 20.6993 16.944 20.8505 17.0313 20.9658C17.1186 21.0811 17.2566 21.1457 17.4003 21.1384ZM56.4266 20.2575H18.0121L19.6158 15.3021H54.8229L56.4266 20.2575Z" fill="#093F68"/>
<rect id="Rectangle_3" x="28.5212" y="0.471313" width="18.9997" height="7.15333" fill="#080C20"/>
<path id="Shape_14" fill-rule="evenodd" clip-rule="evenodd" d="M28.5214 8.06511H47.5167C47.7581 8.06511 47.9537 7.8679 47.9537 7.62463V0.471299C47.9537 0.228031 47.7581 0.0308228 47.5167 0.0308228H28.5214C28.2801 0.0308228 28.0845 0.228031 28.0845 0.471299V7.62463C28.0845 7.8679 28.2801 8.06511 28.5214 8.06511ZM47.0798 7.18416H28.9584V0.911775H47.0798V7.18416Z" fill="#093F68"/>
<path id="Path_15" d="M29.133 21.1384C29.091 21.1447 29.0483 21.1447 29.0063 21.1384C28.7764 21.0684 28.6456 20.8245 28.7135 20.5923L34.6826 0.330354C34.752 0.0985917 34.994 -0.0332164 35.2244 0.035235C35.4561 0.10335 35.5891 0.347888 35.5216 0.581426L29.5525 20.8433C29.4904 21.0226 29.3213 21.1415 29.133 21.1384Z" fill="#093F68"/>
<path id="Path_16" d="M47.1802 21.1385C46.9795 21.1465 46.7993 21.0157 46.7432 20.8213L40.9227 0.559406C40.8579 0.327268 40.9903 0.0857782 41.2198 0.0176199C41.3311 -0.0150902 41.4507 -0.00190958 41.5523 0.054262C41.6539 0.110434 41.7292 0.204995 41.7617 0.317144L47.5822 20.579C47.6498 20.8126 47.5167 21.0571 47.285 21.1252C47.2509 21.1346 47.2156 21.139 47.1802 21.1385Z" fill="#093F68"/>
<path id="Path_17" d="M27.2584 9.84024H25.0385C24.7972 9.84024 24.6016 9.64303 24.6016 9.39977C24.6016 9.1565 24.7972 8.95929 25.0385 8.95929H27.2584C27.4997 8.95929 27.6953 9.1565 27.6953 9.39977C27.6953 9.64303 27.4997 9.84024 27.2584 9.84024Z" fill="#093F68"/>
<path id="Path_18" d="M31.3835 2.59H30.007C29.7657 2.59 29.5701 2.39279 29.5701 2.14952C29.5701 1.90625 29.7657 1.70905 30.007 1.70905H31.3835C31.6248 1.70905 31.8205 1.90625 31.8205 2.14952C31.8205 2.39279 31.6248 2.59 31.3835 2.59Z" fill="#093F68"/>
</g>
</g>
</svg>
